Monsters & Co. [BDRip-720p-Mkv-Ita-DTS/Eng-Ac3-Sub-Ita/Eng][TNTVillage.Scambioetico]




General
Complete name                    : C:\\Monsters & Co. (Ita-Eng) [BDRip720p by Pitt@Sk8].mkv
Format                           : Matroska
File size                        : 4.37 GiB
Duration                         : 1h 32mn
Overall bit rate                 : 6 786 Kbps
Encoded date                     : UTC 2010-10-16 12:45:14
Writing application              : mkvmerge v4.1.1 (\'Bouncin\' Back\') built on Jul  3 2010 22:54:08
Writing library                  : libebml v1.0.0 + libmatroska v1.0.0

Video
ID                               : 1
Format                           : AVC
Format/Info                      : Advanced Video Codec
Format profile                   : High@L4.1
Format settings, CABAC           : Yes
Format settings, ReFrames        : 3 frames
Format settings, GOP             : M=1, N=16
Muxing mode                      : Container profile=Unknown@4.1
Codec ID                         : V_MPEG4/ISO/AVC
Duration                         : 1h 32mn
Bit rate                         : 4 827 Kbps
Width                            : 1 280 pixels
Height                           : 694 pixels
Display aspect ratio             : 16:9
Frame rate                       : 23.976 fps
Color space                      : YUV
Chroma subsampling               : 4:2:0
Bit depth                        : 8 bits
Scan type                        : Progressive
Bits/(Pixel*Frame)               : 0.227
Stream size                      : 3.02 GiB (69%)
Title                            : BDRip720p by Pitt@Sk8
Writing library                  : x264 core 104 r1713 c276662
Encoding settings                : cabac=1 / ref=4 / deblock=1:0:0 / analyse=0x3:0x133 / me=hex / subme=7 / psy=1 / psy_rd=1.00:0.00 / mixed_ref=1 / me_range=16 / chroma_me=1 / trellis=1 / 8x8dct=1 / cqm=0 / deadzone=21,11 / fast_pskip=0 / chroma_qp_offset=-2 / threads=6 / sliced_threads=0 / slices=4 / nr=0 / decimate=0 / interlaced=0 / constrained_intra=0 / bframes=3 / b_pyramid=1 / b_adapt=1 / b_bias=0 / direct=3 / weightb=1 / open_gop=0 / weightp=0 / keyint=24 / keyint_min=2 / scenecut=40 / intra_refresh=0 / rc_lookahead=24 / rc=2pass / mbtree=1 / bitrate=4827 / ratetol=1.0 / qcomp=0.60 / qpmin=10 / qpmax=51 / qpstep=4 / cplxblur=20.0 / qblur=0.5 / vbv_maxrate=40000 / vbv_bufsize=30000 / ip_ratio=1.40 / aq=1:1.00 / nal_hrd=vbr
Color primaries                  : BT.709-5, BT.1361, IEC 61966-2-4, SMPTE RP177
Transfer characteristics         : BT.709-5, BT.1361
Matrix coefficients              : BT.709-5, BT.1361, IEC 61966-2-4 709, SMPTE RP177

Audio #1
ID                               : 2
Format                           : DTS
Format/Info                      : Digital Theater Systems
Format profile                   : ES
Codec ID                         : A_DTS
Duration                         : 1h 32mn
Bit rate mode                    : Constant
Bit rate                         : 1 510 Kbps
Channel(s)                       : 6 channels
Channel positions                : Front: L C R, Side: L R, LFE
Sampling rate                    : 48.0 KHz
Bit depth                        : 24 bits
Stream size                      : 996 MiB (22%)
Title                            : Italiano DTS 5.1 - Pitt@Sk8
Language                         : Italian

Audio #2
ID                               : 3
Format                           : AC-3
Format/Info                      : Audio Coding 3
Mode extension                   : CM (complete main)
Codec ID                         : A_AC3
Duration                         : 1h 32mn
Bit rate mode                    : Constant
Bit rate                         : 448 Kbps
Channel(s)                       : 6 channels
Channel positions                : Front: L C R, Side: L R, LFE
Sampling rate                    : 48.0 KHz
Bit depth                        : 16 bits
Stream size                      : 296 MiB (7%)
Title                            : Inglese AC3 5.1 448 kbps - Pitt@Sk8

Text #1
ID                               : 4
Format                           : UTF-8
Codec ID                         : S_TEXT/UTF8
Codec ID/Info                    : UTF-8 Plain Text
Title                            : Sottotitoli - Italiano
Language                         : Italian

Text #2
ID                               : 5
Format                           : UTF-8
Codec ID                         : S_TEXT/UTF8
Codec ID/Info                    : UTF-8 Plain Text
Title                            : Commento regista - Italiano
Language                         : Italian

Text #3
ID                               : 6
Format                           : UTF-8
Codec ID                         : S_TEXT/UTF8
Codec ID/Info                    : UTF-8 Plain Text
Title                            : Sottotitoli - Inglese

Text #4
ID                               : 7
Format                           : UTF-8
Codec ID                         : S_TEXT/UTF8
Codec ID/Info                    : UTF-8 Plain Text
Title                            : Sottotitoli - Inglese per non udenti

Menu
00:00:00.000                     : en:Titoli di testa
00:01:33.093                     : en:Un mostro nell\'armadio
00:03:07.604                     : en:Mr. Waternoose
00:04:51.124                     : en:Allenamento mattutino
00:07:16.936                     : en:Mostropoli
00:09:11.509                     : en:Monsters & Co.
00:10:43.601                     : en:Randall
00:11:53.796                     : en:Il Reparto Spavento
00:17:25.795                     : en:\"23-19!\"
00:20:06.080                     : en:Fine della giornata
00:22:03.781                     : en:Boo!
00:25:48.422                     : en:Da Harryhausen
00:28:34.963                     : en:Nell\'appartamento
00:31:06.490                     : en:È ora di andare a letto
00:34:49.963                     : en:Boo di nascosto al lavoro
00:36:55.630                     : en:Il vasino di Boo
00:38:50.286                     : en:La congiura di Randall
00:40:27.884                     : en:La porta sbagliata
00:43:34.278                     : en:Mike in fuga
00:45:29.727                     : en:Il compattatore di rifiuti
00:48:07.426                     : en:Il rapimento di Mike
00:50:37.159                     : en:L\'estrattore di urla
00:54:41.278                     : en:Sulley spaventa Boo
00:57:29.446                     : en:Espulsi
01:03:42.026                     : en:Sulley salva Boo
01:06:25.023                     : en:\"Orsotto-potto!\"
01:07:26.376                     : en:Il salto della porta
01:13:52.136                     : en:Inganno a Waternoose
01:17:49.581                     : en:Arrivederci
01:21:24.922                     : en:Il piano delle risate
01:24:07.959                     : en:Gatto!
01:25:06.226                     : en:Titoli di coda